# xmcd CD database file
#
# Track frame offsets:
#	150
#	23578
#	47838
#	69298
#	94370
#	126198
#	154735
#
# Disc length: 2453 seconds
#
# Revision: 1
# Processed by: cddbd v1.5.2PL0 Copyright (c) Steve Scherf et al.
# Submitted via: CDex 1.81
#
DISCID=54099307
DTITLE=The Great Jazz Trio - The Great Tokyo Meeting
DYEAR=2007
DGENRE=Jazz
TTITLE0=Pink Lady
TTITLE1=Mellow Blues
TTITLE2=Out of Round
TTITLE3=G.J.T.
TTITLE4=Interface
TTITLE5=Forever
TTITLE6=To Destiny
EXTD=YEAR: 2007
EXTT0=
EXTT1=
EXTT2=
EXTT3=
EXTT4=
EXTT5=
EXTT6=
PLAYORDER=
